<?xml version="1.0" encoding="UTF-8"?>
<svg version="1.1" xmlns="http://www.w3.org/2000/svg" width="500" height="500">
<path d="M0 0 C0.76755615 0.00821777 1.5351123 0.01643555 2.32592773 0.02490234 C3.58373047 0.03070313 3.58373047 0.03070313 4.86694336 0.03662109 C6.17501953 0.07335937 6.17501953 0.07335937 7.50952148 0.11083984 C8.38543945 0.11212891 9.26135742 0.11341797 10.16381836 0.11474609 C16.66602763 0.20484599 16.66602763 0.20484599 18.94702148 2.48583984 C19.18753052 4.39675903 19.18753052 4.39675903 19.17407227 6.75195312 C19.1739212 7.63271515 19.17377014 8.51347717 19.1736145 9.42092896 C19.16329193 10.37305267 19.15296936 11.32517639 19.14233398 12.30615234 C19.13950409 13.27994843 19.13667419 14.25374451 19.13375854 15.25704956 C19.12254061 18.37510333 19.09743318 21.49287252 19.07202148 24.61083984 C19.06199377 26.72151279 19.05286756 28.83219022 19.04467773 30.94287109 C19.02259606 36.12395819 18.98910278 41.30487869 18.94702148 46.48583984 C19.94482635 46.47109116 20.94263123 46.45634247 21.97067261 46.44114685 C31.35888104 46.30304555 40.74715194 46.17031121 50.1355114 46.04287624 C54.96253626 45.97718182 59.78951876 45.90957474 64.61645508 45.83764648 C69.27181821 45.76834446 73.92722553 45.70400132 78.58270645 45.64314461 C80.36179228 45.61900731 82.14085449 45.59306149 83.91988754 45.56530571 C86.40529434 45.52683366 88.89070622 45.49470366 91.3762207 45.46411133 C92.4875235 45.44469231 92.4875235 45.44469231 93.62127686 45.42488098 C98.71891716 45.37178768 98.71891716 45.37178768 100.94702148 46.48583984 C100.94258026 45.93904572 100.93813904 45.39225159 100.93356323 44.82888794 C100.88940792 39.15157681 100.85918769 33.47431423 100.8371582 27.796875 C100.82708397 25.67641215 100.81342415 23.55596324 100.79614258 21.43554688 C100.77195659 18.39238041 100.76055279 15.34939718 100.75170898 12.30615234 C100.74138641 11.35402863 100.73106384 10.40190491 100.72042847 9.42092896 C100.7202774 8.54016693 100.72012634 7.65940491 100.7199707 6.75195312 C100.71552948 5.97473907 100.71108826 5.19752502 100.70651245 4.39675903 C100.94702148 2.48583984 100.94702148 2.48583984 102.94702148 0.48583984 C106.07248305 0.03957201 109.23081988 0.16173682 112.38452148 0.17333984 C113.25657227 0.15722656 114.12862305 0.14111328 115.02709961 0.12451172 C116.28490234 0.12354492 116.28490234 0.12354492 117.56811523 0.12255859 C118.33567139 0.11957764 119.10322754 0.11659668 119.89404297 0.11352539 C122.57568462 0.59984999 123.29884101 1.32563836 124.94702148 3.48583984 C125.35247803 6.07301331 125.35247803 6.07301331 125.39526367 9.21069336 C125.42979645 10.97250694 125.42979645 10.97250694 125.46502686 12.76991272 C125.47455383 14.03870773 125.48408081 15.30750275 125.49389648 16.61474609 C125.51421936 17.91532455 125.53454224 19.21590302 125.55548096 20.55589294 C125.59781974 23.30716951 125.63048091 26.05832685 125.65551758 28.80981445 C125.68780135 32.33984602 125.7374336 35.86935234 125.79343796 39.39907932 C125.84585468 42.76256123 125.88870238 46.12612584 125.93139648 49.48974609 C125.94902039 50.76056534 125.96664429 52.03138458 125.98480225 53.3407135 C125.99521545 54.51210373 126.00562866 55.68349396 126.01635742 56.89038086 C126.03276276 58.4423391 126.03276276 58.4423391 126.04949951 60.02565002 C125.94702148 62.48583984 125.94702148 62.48583984 124.94702148 64.48583984 C126.59702148 64.48583984 128.24702148 64.48583984 129.94702148 64.48583984 C129.92607422 63.41624023 129.90512695 62.34664063 129.88354492 61.24462891 C129.81107523 57.27145811 129.76519685 53.29834559 129.72729492 49.32470703 C129.70719521 47.60585705 129.6799106 45.88707532 129.64526367 44.16845703 C129.59667115 41.69595495 129.57403714 39.22435774 129.55639648 36.75146484 C129.53575134 35.98465393 129.5151062 35.21784302 129.49383545 34.42779541 C129.49237016 30.93365652 129.6655779 28.88013971 131.72119141 26.00024414 C134.07682058 24.39752748 135.14506338 23.98201088 137.95092773 23.98974609 C139.06177734 23.9887793 139.06177734 23.9887793 140.19506836 23.98779297 C140.95883789 24.00777344 141.72260742 24.02775391 142.50952148 24.04833984 C143.66097656 24.03770508 143.66097656 24.03770508 144.83569336 24.02685547 C150.38903463 24.08979656 150.38903463 24.08979656 152.66470337 25.70500183 C154.35759966 28.05603628 154.32739155 29.5279179 154.33520508 32.4128418 C154.34466156 33.4143074 154.35411804 34.41577301 154.36386108 35.44758606 C154.35475204 37.0694709 154.35475204 37.0694709 154.34545898 38.72412109 C154.34976425 40.3944062 154.34976425 40.3944062 154.35415649 42.09843445 C154.35619944 44.45633451 154.35065356 46.81425143 154.33813477 49.17211914 C154.32213041 52.77382607 154.33795305 56.37440301 154.35717773 59.97607422 C154.35519446 62.26709232 154.35134903 64.55810971 154.34545898 66.84912109 C154.35153168 67.92430496 154.35760437 68.99948883 154.36386108 70.10725403 C154.31214936 75.63536952 154.12771379 79.7429491 150.94702148 84.48583984 C147.3776506 87.7205822 144.24728429 88.61537181 139.49780273 88.58349609 C138.65024414 88.58027344 137.80268555 88.57705078 136.92944336 88.57373047 C136.04836914 88.56535156 135.16729492 88.55697266 134.25952148 88.54833984 C133.3668457 88.54382813 132.47416992 88.53931641 131.55444336 88.53466797 C129.35190162 88.52288967 127.14949549 88.50644149 124.94702148 88.48583984 C124.96796875 89.07075195 124.98891602 89.65566406 125.01049805 90.25830078 C125.09382264 92.9173045 125.14573045 95.5760334 125.19702148 98.23583984 C125.23053711 99.15623047 125.26405273 100.07662109 125.29858398 101.02490234 C125.39524692 107.69464507 125.39524692 107.69464507 123.46655273 111.09912109 C119.76987145 113.13372862 116.53678686 113.03196451 112.38452148 112.92333984 C111.23306641 112.93397461 111.23306641 112.93397461 110.05834961 112.94482422 C104.4861453 112.88166933 104.4861453 112.88166933 102.23210144 111.22673035 C100.63675989 109.06553023 100.5537962 107.86787549 100.51464844 105.19799805 C100.49470825 104.32534302 100.47476807 103.45268799 100.45422363 102.55358887 C100.44797974 101.6404895 100.44173584 100.72739014 100.43530273 99.78662109 C100.41866577 98.9443396 100.40202881 98.10205811 100.3848877 97.23425293 C100.32707271 94.08920233 100.29483206 90.9437236 100.25952148 87.79833984 C100.15639648 80.76521484 100.05327148 73.73208984 99.94702148 66.48583984 C73.54702148 66.48583984 47.14702148 66.48583984 19.94702148 66.48583984 C19.73699822 80.50186739 19.73699822 80.50186739 19.55908203 94.51831055 C19.52679945 96.27443586 19.49342677 98.03054162 19.45874023 99.78662109 C19.45249634 100.69972046 19.44625244 101.61281982 19.43981934 102.55358887 C19.41987915 103.4262439 19.39993896 104.29889893 19.37939453 105.19799805 C19.36829147 105.95522659 19.35718842 106.71245514 19.3457489 107.49263 C18.83223273 110.05966063 18.04300015 110.94426823 15.94702148 112.48583984 C13.03726143 112.83818213 10.41720935 112.99560538 7.50952148 112.98583984 C6.74575195 113.01419922 5.98198242 113.04255859 5.19506836 113.07177734 C1.38920728 113.08502664 -0.48225107 112.92030058 -3.57250977 110.56787109 C-5.66783619 106.20583271 -5.48788605 102.4418208 -5.30297852 97.67333984 C-5.28493164 96.7896875 -5.26688477 95.90603516 -5.24829102 94.99560547 C-5.20136364 92.82521442 -5.12962583 90.65538465 -5.05297852 88.48583984 C-6.27114258 88.52064453 -7.48930664 88.55544922 -8.74438477 88.59130859 C-10.36806879 88.61946496 -11.99176786 88.64676313 -13.61547852 88.67333984 C-14.4153418 88.69847656 -15.21520508 88.72361328 -16.03930664 88.74951172 C-21.50062282 88.81638498 -25.25870897 88.17619287 -30.05297852 85.48583984 C-36.65649246 78.00165835 -35.33300849 66.57649732 -35.24047852 57.23583984 C-35.23983398 56.01509766 -35.23918945 54.79435547 -35.23852539 53.53662109 C-35.22097281 49.85058019 -35.15176348 46.1705678 -35.05297852 42.48583984 C-35.02155762 41.19871094 -34.99013672 39.91158203 -34.95776367 38.58544922 C-34.90281738 37.34085938 -34.84787109 36.09626953 -34.79125977 34.81396484 C-34.74654541 33.6940918 -34.70183105 32.57421875 -34.65576172 31.42041016 C-33.92739827 27.87446902 -32.92964842 26.6358802 -30.05297852 24.48583984 C-27.22665197 24.11194039 -24.86273924 23.96944258 -22.05297852 24.04833984 C-21.34141602 24.04125 -20.62985352 24.03416016 -19.89672852 24.02685547 C-16.97357565 24.06230415 -14.5197546 24.27400642 -11.84301758 25.48876953 C-9.06662663 28.58627062 -9.55971064 31.92573971 -9.66235352 35.87255859 C-9.66801331 36.68956741 -9.6736731 37.50657623 -9.67950439 38.3483429 C-9.70189154 40.95727187 -9.75209006 43.5648262 -9.80297852 46.17333984 C-9.82304059 47.94220021 -9.84129188 49.71108212 -9.85766602 51.47998047 C-9.90176372 55.81579641 -9.97080557 60.15058509 -10.05297852 64.48583984 C-8.40297852 64.48583984 -6.75297852 64.48583984 -5.05297852 64.48583984 C-5.05964035 63.74303772 -5.06630219 63.0002356 -5.07316589 62.23492432 C-5.13330181 55.23131586 -5.17896542 48.22779699 -5.20841503 41.22400284 C-5.22406448 37.62334419 -5.24528909 34.02289905 -5.27929688 30.42236328 C-5.3119168 26.94697728 -5.32983696 23.47179652 -5.33761024 19.99626923 C-5.3458429 18.0264356 -5.36925825 16.05668443 -5.39286804 14.0869751 C-5.39309464 12.8860321 -5.39332123 11.68508911 -5.39355469 10.44775391 C-5.40021652 9.3907428 -5.40687836 8.33373169 -5.41374207 7.24468994 C-4.93305527 3.56875649 -3.78976558 0.8968526 0 0 Z M12.94702148 12.48583984 C12.94702148 41.19583984 12.94702148 69.90583984 12.94702148 99.48583984 C13.27702148 99.48583984 13.60702148 99.48583984 13.94702148 99.48583984 C13.94702148 70.77583984 13.94702148 42.06583984 13.94702148 12.48583984 C13.61702148 12.48583984 13.28702148 12.48583984 12.94702148 12.48583984 Z M105.94702148 12.48583984 C105.94702148 41.19583984 105.94702148 69.90583984 105.94702148 99.48583984 C106.60702148 99.48583984 107.26702148 99.48583984 107.94702148 99.48583984 C107.94702148 71.10583984 107.94702148 42.72583984 107.94702148 13.48583984 C107.28702148 13.15583984 106.62702148 12.82583984 105.94702148 12.48583984 Z M-17.05297852 32.48583984 C-17.05297852 47.99583984 -17.05297852 63.50583984 -17.05297852 79.48583984 C-16.39297852 79.48583984 -15.73297852 79.48583984 -15.05297852 79.48583984 C-15.05297852 63.97583984 -15.05297852 48.46583984 -15.05297852 32.48583984 C-15.71297852 32.48583984 -16.37297852 32.48583984 -17.05297852 32.48583984 Z M134.94702148 32.48583984 C134.94702148 47.99583984 134.94702148 63.50583984 134.94702148 79.48583984 C135.60702148 79.48583984 136.26702148 79.48583984 136.94702148 79.48583984 C136.94702148 63.97583984 136.94702148 48.46583984 136.94702148 32.48583984 C136.28702148 32.48583984 135.62702148 32.48583984 134.94702148 32.48583984 Z " fill="#FDFDFD" transform="translate(187.052978515625,195.51416015625)"/>
<path d="M0 0 C4.65323158 0.36176038 8.71349935 1.11354465 13 3 C15.56437574 6.02045599 17.26233756 9.08575553 19.1171875 12.58203125 C25.75944707 24.64007508 37.94752428 34.66191487 50 41 C51.07636719 41.5878125 52.15273437 42.175625 53.26171875 42.78125 C74.46915546 53.85045461 98.27805801 54.43588149 121 48 C132.31518049 44.35676057 141.73434147 38.32903153 151 31 C152.28197266 29.99453125 152.28197266 29.99453125 153.58984375 28.96875 C160.14035366 23.50439301 165.29897648 16.85454228 169.4453125 9.40234375 C171.5382772 5.72470578 172.84605989 3.50094765 176.81640625 1.77734375 C179.54095343 1.02922415 182.20925756 0.43201885 185 0 C183.34988722 11.1795141 175.38847131 20.8805536 168 29 C167.28432861 29.78938965 167.28432861 29.78938965 166.55419922 30.59472656 C147.88600604 50.92855002 123.54801005 61.62487244 96 63 C68.55977371 63.57167138 43.5213619 53.80491105 23.5534668 35.06811523 C13.20107424 24.99040373 5.31937112 13.46640793 0 0 Z " fill="#FCFCFC" transform="translate(154,289)"/>
<path d="M0 0 C12.39644927 10.25059687 23.04894222 22.06403348 29.32421875 37.1015625 C29.32421875 37.7615625 29.32421875 38.4215625 29.32421875 39.1015625 C25.85138426 39.65749055 22.78092844 39.83258872 19.32421875 39.1015625 C17.33746191 37.23721248 16.26514964 35.30870047 14.93359375 32.93359375 C6.67325285 18.3977997 -5.2392293 8.25901936 -19.67578125 0.1015625 C-20.52011719 -0.383125 -21.36445313 -0.8678125 -22.234375 -1.3671875 C-39.7874954 -10.82108486 -63.38804337 -13.00588125 -82.67578125 -7.8984375 C-83.52140625 -7.68058594 -84.36703125 -7.46273437 -85.23828125 -7.23828125 C-102.36282141 -2.46116105 -118.56049899 7.1178203 -129.67578125 21.1015625 C-130.33578125 21.1015625 -130.99578125 21.1015625 -131.67578125 21.1015625 C-132.07990234 22.19791016 -132.07990234 22.19791016 -132.4921875 23.31640625 C-133.64248205 26.02320497 -134.95717553 28.24100705 -136.61328125 30.6640625 C-137.11730469 31.40785156 -137.62132812 32.15164062 -138.140625 32.91796875 C-138.64722656 33.63855469 -139.15382812 34.35914063 -139.67578125 35.1015625 C-140.35253906 36.22111328 -140.35253906 36.22111328 -141.04296875 37.36328125 C-142.67578125 39.1015625 -142.67578125 39.1015625 -145.15625 39.4921875 C-146.04957031 39.44578125 -146.94289062 39.399375 -147.86328125 39.3515625 C-148.76433594 39.31546875 -149.66539062 39.279375 -150.59375 39.2421875 C-151.28082031 39.19578125 -151.96789062 39.149375 -152.67578125 39.1015625 C-150.65924685 29.20221182 -143.22240955 19.60399853 -136.67578125 12.1015625 C-136.01578125 12.1015625 -135.35578125 12.1015625 -134.67578125 12.1015625 C-134.27359375 11.204375 -134.27359375 11.204375 -133.86328125 10.2890625 C-132.67660719 8.10308396 -131.57979012 6.68823656 -129.67578125 5.1015625 C-129.01578125 5.1015625 -128.35578125 5.1015625 -127.67578125 5.1015625 C-127.67578125 4.4415625 -127.67578125 3.7815625 -127.67578125 3.1015625 C-91.70367793 -27.70132125 -37.20598526 -29.87000545 0 0 Z " fill="#FCFCFC" transform="translate(308.67578125,172.8984375)"/>
<path d="M0 0 C1.22074219 -0.01417969 2.44148438 -0.02835938 3.69921875 -0.04296875 C8.40176972 0.25697774 11.86988344 0.6259362 15.16015625 4.1875 C16.83078389 8.53679501 16.78682912 12.56711935 16.75 17.1875 C16.7799707 18.52167969 16.7799707 18.52167969 16.81054688 19.8828125 C16.80735445 24.16066591 16.70958899 26.54824381 14.41015625 30.25 C11.51549761 32.92365119 10.01255006 33.31214824 6.1796875 33.28515625 C5.37402344 33.28193359 4.56835938 33.27871094 3.73828125 33.27539062 C2.47564453 33.26282227 2.47564453 33.26282227 1.1875 33.25 C0.33800781 33.24548828 -0.51148438 33.24097656 -1.38671875 33.23632812 C-3.48700909 33.22452874 -5.5872633 33.20659306 -7.6875 33.1875 C-7.71215392 28.64852295 -7.73033789 24.10958457 -7.74243164 19.57055664 C-7.7474714 18.02530234 -7.7543032 16.48005284 -7.76293945 14.93481445 C-7.77502076 12.71824971 -7.78073173 10.50174782 -7.78515625 8.28515625 C-7.79031754 7.5903566 -7.79547882 6.89555695 -7.80079651 6.17970276 C-7.80099277 4.5152067 -7.74939129 2.85084501 -7.6875 1.1875 C-5.78481293 -0.71518707 -2.53060855 0.01322157 0 0 Z M-2.6875 10.1875 C-2.6875 14.8075 -2.6875 19.4275 -2.6875 24.1875 C-2.0275 24.1875 -1.3675 24.1875 -0.6875 24.1875 C-0.6875 19.5675 -0.6875 14.9475 -0.6875 10.1875 C-1.3475 10.1875 -2.0075 10.1875 -2.6875 10.1875 Z " fill="#FDFDFD" transform="translate(353.6875,234.8125)"/>
<path d="M0 0 C1.84658203 0.00966797 1.84658203 0.00966797 3.73046875 0.01953125 C6.8125 0.1875 6.8125 0.1875 8.8125 1.1875 C8.8125 11.7475 8.8125 22.3075 8.8125 33.1875 C5.945625 33.27 3.07875 33.3525 0.125 33.4375 C-1.21630981 33.49212402 -1.21630981 33.49212402 -2.5847168 33.54785156 C-6.63442845 33.60416694 -8.68853852 33.49991573 -12.20703125 31.296875 C-16.15802204 27.08871913 -15.40643757 22.88469802 -15.4375 17.375 C-15.458125 16.47201172 -15.47875 15.56902344 -15.5 14.63867188 C-15.55130959 5.90962843 -15.55130959 5.90962843 -12.1875 2.1875 C-8.21935445 -0.11859506 -4.51872583 -0.05237722 0 0 Z M1.8125 10.1875 C1.8125 14.8075 1.8125 19.4275 1.8125 24.1875 C2.4725 24.1875 3.1325 24.1875 3.8125 24.1875 C3.8125 19.5675 3.8125 14.9475 3.8125 10.1875 C3.1525 10.1875 2.4925 10.1875 1.8125 10.1875 Z " fill="#FDFDFD" transform="translate(139.1875,234.8125)"/>
</svg>
