<svg version="1.1" viewBox="-20 -20 1336.563 1080.625" width="1300" height="1300" xmlns="http://www.w3.org/2000/svg"><path d="M392.031 300.625h59.922l9.141 3.047 7.109 6.094 3.047 6.094v190.938l367.656 -1.016 1.016 -190.938 4.063 -6.094 6.094 -5.078 7.109 -3.047h61.953l9.141 2.031 8.125 6.094 4.063 6.094 1.016 4.063v267.109h28.438V427.578l3.047 -7.109 9.141 -8.125 5.078 -2.031 7.109 -1.016h50.781l13.203 2.031 8.125 6.094 5.078 8.125v219.375l-3.047 11.172 -5.078 10.156 -6.094 7.109 -13.203 9.141 -7.109 3.047 -10.156 2.031 -84.297 1.016 -1.016 87.344 -2.031 8.125 -7.109 8.125 -6.094 3.047 -8.125 1.016h-58.906l-9.141 -3.047 -6.094 -5.078 -4.063 -8.125 -1.016 -189.922H471.25v189.922l-4.063 8.125 -8.125 6.094 -10.156 2.031h-59.922l-8.125 -3.047 -9.141 -9.141 -1.016 -3.047 -1.016 -12.188 -1.016 -80.234 -85.313 -1.016 -14.219 -4.063 -11.172 -7.109 -7.109 -7.109 -7.109 -11.172 -3.047 -8.125 -1.016 -9.141V425.547l4.063 -6.094 8.125 -7.109 5.078 -2.031h66.016l7.109 3.047 5.078 4.063 5.078 7.109 1.016 28.438v133.047h28.438V326.016l1.016 -10.156 4.063 -6.094 8.125 -7.109zm52.813 52.813 -2.031 1.016 -1.016 88.359v300.625h12.188V354.453zm417.422 0 -4.063 1.016 -1.016 151.328v84.297l1.016 153.359h10.156l1.016 -1.016V356.484l-2.031 -3.047zm-549.453 89.375 -1.016 3.047v208.203h11.172l1.016 -175.703v-33.516l-2.031 -2.031zm676.406 0 -1.016 4.063v207.188l4.063 1.016 7.109 -1.016 1.016 -2.031 -1.016 -208.203 -1.016 -1.016z" fill="#FEFEFE"/><path d="m1064.375 718.047 1.016 2.031 -11.172 21.328 -8.125 16.25 -10.156 19.297 -13.203 20.313 -13.203 18.281 -12.188 14.219 -9.141 11.172 -15.234 16.25 -21.328 21.328 -8.125 7.109 -13.203 11.172 -13.203 10.156 -16.25 11.172 -21.328 13.203 -23.359 12.188 -16.25 8.125 -24.375 10.156 -28.438 10.156 -26.406 7.109 -24.375 5.078 -36.563 5.078 -39.609 3.047 -25.391 -1.016 -26.406 -2.031 -30.469 -4.063 -28.438 -6.094 -28.438 -8.125 -28.438 -10.156 -25.391 -11.172 -16.25 -8.125 -21.328 -11.172 -22.344 -14.219 -19.297 -14.219 -10.156 -8.125 -13.203 -11.172 -12.188 -11.172 -21.328 -21.328 -7.109 -8.125 -12.188 -14.219 -13.203 -17.266 -10.156 -14.219 -13.203 -21.328 -12.188 -22.344 -13.203 -27.422 -3.047 -4.063v-2.031l32.5 8.125 15.234 2.031 5.078 8.125 12.188 21.328 14.219 21.328 10.156 14.219 9.141 11.172 11.172 13.203 26.406 26.406 8.125 7.109 13.203 11.172 16.25 12.188 15.234 10.156 21.328 13.203 27.422 14.219 25.391 11.172 19.297 7.109 20.313 6.094 36.563 8.125 25.391 4.063 10.156 1.016h68.047l24.375 -3.047 34.531 -7.109 24.375 -6.094 23.359 -8.125 30.469 -13.203 20.313 -10.156 27.422 -16.25 16.25 -11.172 13.203 -10.156 16.25 -13.203 13.203 -12.188 8.125 -7.109 10.156 -10.156 2.031 -3.047h2.031l2.031 -4.063 8.125 -9.141 8.125 -10.156 13.203 -18.281 10.156 -15.234 15.234 -26.406 4.063 -7.109 20.313 -3.047z" fill="#FEFEFE"/><path d="M640.859 106.641h29.453l31.484 2.031 33.516 5.078 29.453 6.094 25.391 7.109 30.469 11.172 22.344 9.141 16.25 8.125 22.344 12.188 19.297 12.188 11.172 8.125 13.203 10.156 11.172 9.141 14.219 12.188 11.172 10.156 8.125 7.109 8.125 8.125 7.109 8.125 12.188 14.219 13.203 17.266 10.156 14.219 10.156 15.234 13.203 22.344 13.203 25.391 3.047 5.078v2.031h-42.656l-6.094 -8.125 -10.156 -18.281 -14.219 -22.344 -14.219 -19.297 -9.141 -11.172 -9.141 -10.156 -7.109 -8.125 -13.203 -13.203 -8.125 -7.109 -12.188 -11.172 -17.266 -13.203 -18.281 -13.203 -18.281 -11.172 -21.328 -12.188 -28.438 -13.203 -24.375 -9.141 -22.344 -7.109 -29.453 -7.109 -27.422 -4.063 -44.688 -3.047h-16.25l-33.516 2.031 -29.453 4.063 -28.438 6.094 -26.406 8.125 -31.484 12.188 -25.391 12.188 -24.375 13.203 -21.328 14.219 -19.297 14.219 -13.203 11.172 -8.125 7.109 -3.047 3.047h-2.031v2.031l-8.125 7.109 -10.156 10.156 -7.109 8.125 -9.141 10.156 -11.172 14.219 -13.203 18.281 -10.156 16.25 -15.234 27.422 -1.016 1.016h-42.656l-1.016 -2.031 12.188 -23.359 10.156 -18.281 13.203 -21.328 7.109 -10.156 11.172 -15.234 8.125 -10.156 9.141 -11.172 7.109 -7.109 7.109 -8.125 11.172 -11.172 8.125 -7.109 12.188 -11.172 11.172 -9.141 18.281 -14.219 19.297 -13.203 22.344 -13.203 23.359 -12.188 19.297 -9.141 30.469 -11.172 18.281 -6.094 24.375 -6.094 37.578 -7.109 25.391 -3.047z" fill="#FEFEFE"/><path d="M146.25 477.344h59.922l5.078 2.031v138.125l-1.016 1.016h-68.047l-11.172 -4.063 -12.188 -9.141 -5.078 -7.109 -4.063 -12.188 -1.016 -15.234v-42.656l1.016 -17.266 4.063 -11.172 6.094 -9.141 8.125 -7.109 13.203 -5.078zm35.547 38.594 -1.016 11.172v53.828h11.172l1.016 -1.016v-62.969l-1.016 -1.016z" fill="#FEFEFE"/><path d="M1101.953 477.344h58.906l12.188 2.031 9.141 4.063 6.094 4.063 7.109 9.141 4.063 8.125 2.031 7.109v75.156l-4.063 11.172 -7.109 9.141 -8.125 6.094 -9.141 4.063 -15.234 2.031h-15.234l-40.625 -1.016 -1.016 -1.016 -1.016 -138.125zm18.281 38.594 -1.016 1.016 -1.016 60.938 1.016 3.047h11.172v-63.984l-2.031 -1.016z" fill="#FEFEFE"/></svg>